<svg width="22" height="13" viewBox="0 0 22 13" fill="none" xmlns="http://www.w3.org/2000/svg">
<path d="M20.707 9.39977C19.6452 9.79818 18.5834 10.0638 17.7871 10.0638C17.1235 10.0638 16.7253 9.93099 16.4599 9.53258C16.1945 9.13417 16.1945 8.60296 16.3272 7.80615L16.9908 4.8845C17.2562 3.42367 17.1235 2.36126 16.5926 1.69725C16.0617 1.03324 15.2654 0.767617 14.2036 0.767617C13.0091 0.767617 11.9474 1.16602 10.8856 2.09564C10.4874 1.29883 9.55839 0.767617 8.36389 0.767617C7.30212 0.767617 6.37307 1.16603 5.44402 1.83004C5.04586 1.16603 3.98408 0.634827 2.78959 0.634827C2.25871 0.634827 1.5951 0.767625 1.06421 0.900427H0.931489L0.533325 3.02527L1.06421 2.75965C1.86054 2.49405 2.52415 2.49405 2.78959 2.75965C3.05503 3.02526 3.05503 3.42368 2.92231 3.95489L1.46238 10.1966H3.98408L5.04586 5.81411C5.57674 3.68927 6.50579 2.62686 7.83301 2.62686C8.23117 2.62686 8.49661 2.75967 8.62933 3.02527C8.89478 3.29088 8.89478 3.82208 8.76206 4.6189L7.43484 10.1966H9.95655L11.151 5.01731C11.4165 3.68928 12.611 2.62686 13.8055 2.62686C14.2036 2.62686 14.4691 2.75967 14.6018 3.02527C14.8672 3.29088 14.8672 3.82208 14.7345 4.6189L14.0709 7.80615C13.8055 9.13417 13.9382 10.1966 14.6018 10.8606C15.2654 11.6574 16.3272 12.0558 17.6544 12.0558C18.7162 12.0558 19.9107 11.7902 21.1052 11.259L21.2379 11.1262L21.7688 8.73576L20.707 9.39977Z" fill="white"/>
</svg>
