<svg width="13" height="18" viewBox="0 0 13 18" fill="none" xmlns="http://www.w3.org/2000/svg">
<path d="M9.74617 6.46218C9.74617 9.25103 8.02079 10.4462 6.16269 10.4462C3.90642 10.4462 2.71192 8.45422 2.71192 6.46218C2.71192 3.80614 4.43731 2.47812 6.16269 2.47812C8.28623 2.47812 9.74617 4.20455 9.74617 6.46218ZM6.69357 0.486084C5.10091 0.486084 3.7737 1.28291 2.84465 2.61093V0.884495H0.588379V17.352H2.84465V10.7118C3.7737 12.0399 5.10091 12.7039 6.56085 12.7039C8.15351 12.7039 9.61345 12.0399 10.5425 10.8447C11.4715 9.78224 12.0024 8.18862 12.0024 6.59499C12.0024 5.00137 11.4715 3.54053 10.5425 2.47812C9.61345 1.15009 8.15351 0.486084 6.69357 0.486084Z" fill="white"/>
</svg>
