<svg width="12" height="19" viewBox="0 0 12 19" fill="none" xmlns="http://www.w3.org/2000/svg">
<path d="M9.27534 0.751684V2.61093C8.34628 1.2829 7.01907 0.486084 5.42641 0.486084C3.83375 0.486084 2.50654 1.15011 1.57749 2.34533C0.64844 3.40774 0.117554 4.86855 0.117554 6.46218C0.117554 8.0558 0.64844 9.64943 1.57749 10.7118C2.50654 11.9071 3.96648 12.5711 5.55913 12.5711C7.01907 12.5711 8.34628 11.7743 9.27534 10.5791V12.3055C9.27534 14.2975 8.87717 16.2895 6.09002 16.2895C4.0992 16.2895 2.77198 15.0943 2.77198 13.2351V13.1023H0.64844V13.2351C0.64844 16.2895 2.9047 18.4144 6.09002 18.4144C11.0007 18.4144 11.6643 14.8287 11.6643 11.6415V0.884494H9.27534V0.751684ZM5.82458 10.4462C3.56831 10.4462 2.37382 8.45421 2.37382 6.46218C2.37382 3.80614 4.0992 2.47812 5.82458 2.47812C7.94812 2.47812 9.40806 4.07174 9.40806 6.46218C9.27534 9.25102 7.54996 10.4462 5.82458 10.4462Z" fill="white"/>
</svg>
