<svg width="13" height="13" viewBox="0 0 13 13" fill="none" xmlns="http://www.w3.org/2000/svg">
<path d="M12.2454 4.07174C11.9799 3.27492 11.5818 2.74372 11.0509 2.21252C10.52 1.68131 9.9891 1.28291 9.19277 1.01731C8.52916 0.751703 7.60011 0.618896 6.67107 0.618896C5.74202 0.618896 4.94569 0.751703 4.14936 1.01731C3.48576 1.28291 2.82215 1.68131 2.29126 2.21252C1.76038 2.74372 1.36222 3.40773 1.09677 4.07174C0.83133 4.86855 0.698608 5.66536 0.698608 6.46217C0.698608 7.39179 0.83133 8.18861 1.09677 8.98542C1.36222 9.78224 1.76038 10.3134 2.29126 10.8446C2.82215 11.3759 3.35303 11.7742 4.14936 12.0399C4.81297 12.3055 5.74202 12.4383 6.67107 12.4383C7.60011 12.4383 8.39644 12.3055 9.19277 12.0399C9.85638 11.7742 10.52 11.3759 11.0509 10.8446C11.5818 10.3134 11.9799 9.64943 12.2454 8.98542C12.5108 8.18861 12.6435 7.39179 12.6435 6.46217C12.6435 5.66536 12.5108 4.73574 12.2454 4.07174ZM8.39644 10.3134C7.99828 10.579 7.46739 10.7118 6.80379 10.7118C6.2729 10.7118 5.74202 10.579 5.21113 10.3134C4.81297 10.0478 4.4148 9.78222 4.14936 9.38381C3.88392 8.98541 3.61848 8.587 3.48576 8.05579C3.35303 7.52459 3.35303 6.99338 3.35303 6.46217C3.35303 5.93097 3.35303 5.39977 3.48576 5.00137C3.61848 4.47016 3.88392 4.07175 4.14936 3.67335C4.4148 3.27494 4.81297 3.00932 5.21113 2.74372C5.6093 2.47811 6.14018 2.34533 6.80379 2.34533C7.33467 2.34533 7.86556 2.47811 8.39644 2.74372C8.79461 3.00932 9.19277 3.27494 9.45821 3.67335C9.72366 4.07175 9.9891 4.47016 10.1218 5.00137C10.2545 5.53257 10.2545 6.06377 10.2545 6.46217C10.2545 6.99338 10.2545 7.52459 10.1218 8.05579C9.9891 8.587 9.72366 8.98541 9.45821 9.38381C9.19277 9.78222 8.79461 10.1806 8.39644 10.3134Z" fill="white"/>
</svg>
