<svg width="29" height="13" viewBox="0 0 29 13" fill="none" xmlns="http://www.w3.org/2000/svg">
<path d="M27.7918 12.6033C27.6591 12.6033 27.5264 12.6033 27.3937 12.6033C26.8628 12.6033 26.3319 12.2049 26.1992 11.6737L24.3411 5.83042L22.483 11.6737C22.3503 12.2049 21.8193 11.6737 21.2884 11.6737C20.7576 11.6737 20.2267 12.2049 20.094 11.6737L18.2359 5.83042L16.3778 11.6737C16.245 12.2049 15.7142 12.6033 15.1833 12.6033C15.0506 12.6033 14.9178 12.6033 14.7851 12.6033C14.1215 12.3377 13.7233 11.6737 13.9887 11.0097L17.0414 1.58076C17.1741 1.04955 17.705 1.58076 18.2359 1.58076C18.7668 1.58076 19.2976 1.04955 19.4304 1.58076L21.2884 7.42404L23.1466 1.58076C23.2793 1.04955 23.8102 1.58076 24.3411 1.58076C24.872 1.58076 25.4028 1.04955 25.5356 1.58076L28.5881 11.0097C28.8536 11.6737 28.4555 12.3377 27.7918 12.6033ZM14.3869 0.783936C14.2542 0.783936 14.1215 0.783936 13.9887 0.783936C13.4579 0.783936 12.927 1.18236 12.7943 1.71357L10.9362 7.55685L9.07807 1.71357C8.94535 1.18236 8.41447 1.71357 7.88358 1.71357C7.35269 1.71357 6.82177 1.18236 6.68905 1.71357L4.83095 7.55685L2.97286 1.71357C2.84014 1.18236 2.30926 0.783936 1.77837 0.783936C1.64565 0.783936 1.5129 0.783936 1.38018 0.783936C0.716571 1.04954 0.318438 1.71357 0.583881 2.37758L3.63647 11.8065C3.76919 12.3377 4.30007 11.8065 4.83095 11.8065C5.36184 11.8065 5.89272 12.3377 6.02544 11.8065L7.88358 5.96323L9.74168 11.8065C9.8744 12.3377 10.4053 11.8065 10.9362 11.8065C11.4671 11.8065 11.9979 12.3377 12.1307 11.8065L15.1833 2.37758C15.4487 1.71357 15.0505 0.916738 14.3869 0.783936Z" fill="white"/>
<path d="M24.341 0.650757C24.8718 0.650757 25.4027 1.04916 25.5354 1.58037C25.6682 1.84597 25.6682 2.11159 25.5354 2.37719L24.341 5.96285L23.1465 2.37719C23.0138 2.11159 23.0138 1.84597 23.1465 1.58037C23.2792 1.04916 23.8101 0.650757 24.341 0.650757ZM16.9086 1.58037C16.7758 1.84597 16.7758 2.11159 16.9086 2.37719L18.103 5.96285L19.2975 2.37719C19.4302 2.11159 19.4302 1.84597 19.2975 1.58037C19.1648 1.04916 18.6339 0.650757 18.103 0.650757C17.5722 0.650757 17.0413 1.04916 16.9086 1.58037ZM10.9361 12.603C11.467 12.603 11.9979 12.2046 12.1306 11.6734C12.2633 11.4078 12.2633 11.1421 12.1306 10.8765L10.9361 7.29087L9.74163 10.8765C9.60891 11.1421 9.60891 11.4078 9.74163 11.6734C9.87435 12.2046 10.4052 12.603 10.9361 12.603ZM4.6982 12.603C5.22908 12.603 5.76 12.2046 5.89272 11.6734C6.02544 11.4078 6.02544 11.1421 5.89272 10.8765L4.6982 7.29087L3.50372 10.8765C3.37099 11.1421 3.37099 11.4078 3.50372 11.6734C3.76916 12.2046 4.16731 12.603 4.6982 12.603Z" fill="white"/>
<path d="M7.88366 0.650757C8.41455 0.650757 8.94542 1.04916 9.07814 1.58037C9.21087 1.84597 9.21087 2.11159 9.07814 2.37719L7.88366 5.96285L6.68914 2.37719C6.55642 2.11159 6.55642 1.84597 6.68914 1.58037C6.82186 1.04916 7.35278 0.650757 7.88366 0.650757ZM21.2885 12.603C21.8193 12.603 22.3503 12.2046 22.483 11.6734C22.6157 11.4078 22.6157 11.1421 22.483 10.8765L21.2885 7.29087L20.094 10.8765C19.9613 11.1421 19.9613 11.4078 20.094 11.6734C20.2267 12.2046 20.6249 12.603 21.2885 12.603Z" fill="white"/>
</svg>
