<svg width="81" height="11" viewBox="0 0 81 11" fill="none" xmlns="http://www.w3.org/2000/svg">
<path d="M20.3461 10.2112C20.2134 10.2112 19.9479 10.0784 19.6825 9.67995L19.0189 7.82073H14.9045L14.2409 9.67995C14.1082 10.0784 13.8427 10.2112 13.5773 10.2112C13.3118 10.2112 12.9137 9.94557 12.9137 9.54716C12.9137 9.41436 12.9137 9.28155 13.0464 9.14875L16.2317 1.18061C16.4972 0.5166 16.7626 0.5166 17.0281 0.5166C17.2935 0.5166 17.559 0.649402 17.8244 1.18061L21.0097 9.14875C21.1424 9.28155 21.1424 9.41436 21.1424 9.54716C21.0097 9.94557 20.6115 10.2112 20.3461 10.2112ZM18.488 6.4927L16.8953 2.24303L15.3027 6.4927H18.488ZM28.0439 1.57902C28.1766 1.44622 28.1766 1.18061 28.1766 1.18061C28.1766 0.782204 27.9112 0.5166 27.513 0.5166C27.2476 0.5166 26.9822 0.649394 26.8494 1.0478L24.0623 8.35193L21.2752 1.0478C21.1424 0.649394 20.877 0.5166 20.6116 0.5166C20.2134 0.5166 19.9479 0.782204 19.9479 1.18061C19.9479 1.31341 19.9479 1.44622 20.0806 1.57902L23.1333 9.41435C23.3987 10.0784 23.7968 10.2112 24.0623 10.2112C24.3277 10.2112 24.7259 10.0784 24.9913 9.41435L28.0439 1.57902ZM34.5473 5.69588C35.0782 5.69588 35.2109 5.29748 35.2109 5.16468C35.2109 5.03188 35.0782 4.63348 34.5473 4.63348H30.5657V1.84462H34.8127C35.3436 1.84462 35.4763 1.44622 35.4763 1.31342C35.4763 1.18062 35.3436 0.7822 34.8127 0.7822H30.0347C29.5039 0.7822 29.2384 1.04781 29.2384 1.57902V9.54716C29.2384 10.0784 29.5039 10.344 30.0347 10.344H34.9455C35.4763 10.344 35.6091 9.94557 35.6091 9.81276C35.6091 9.67996 35.4763 9.28156 34.9455 9.28156H30.5657V6.09429H34.5473V5.69588ZM55.65 10.2112C55.5173 10.2112 55.2518 10.0784 54.9864 9.67995L54.3228 7.82073H50.2084L49.5448 9.67995C49.4121 10.0784 49.1467 10.2112 48.8812 10.2112C48.6158 10.2112 48.2176 9.94557 48.2176 9.54716C48.2176 9.41436 48.2176 9.28155 48.3503 9.14875L51.5356 1.18061C51.8011 0.5166 52.0665 0.5166 52.332 0.5166C52.5974 0.5166 52.8629 0.649402 53.1283 1.18061L56.3136 9.14875C56.4463 9.28155 56.4463 9.41436 56.4463 9.54716C56.3136 9.94557 56.0482 10.2112 55.65 10.2112ZM53.9246 6.4927L52.332 2.24303L50.7393 6.4927H53.9246ZM46.4922 10.2112C46.7577 10.2112 47.1558 10.0784 47.1558 9.41435V1.31342C47.1558 0.516608 46.625 0.383789 46.3595 0.383789C46.0941 0.383789 45.6959 0.5166 45.4304 1.18061L42.2451 8.35193L39.0598 1.18061C38.7944 0.5166 38.3962 0.383789 38.1308 0.383789C37.8653 0.383789 37.3344 0.516608 37.3344 1.31342V9.41435C37.3344 10.0784 37.7326 10.0784 37.998 10.0784C38.2635 10.0784 38.6616 9.94556 38.6616 9.41435V3.30546L41.4488 9.54716C41.7142 10.0784 41.9797 10.2112 42.2451 10.2112C42.5106 10.2112 42.776 10.0784 43.0415 9.54716L45.8286 3.17265V9.41435C45.8286 10.0784 46.2268 10.2112 46.4922 10.2112ZM64.6751 9.54716C64.6751 9.41436 64.6751 9.14874 64.4096 9.01594L60.2953 5.03187L64.1442 1.71181C64.4096 1.44621 64.4096 1.31341 64.4096 1.18061C64.4096 0.782204 64.1442 0.64941 63.746 0.64941C63.6133 0.64941 63.3478 0.782208 63.2151 0.915011L58.8353 4.89908V1.18061C58.8353 0.5166 58.4372 0.383789 58.1717 0.383789C57.9063 0.383789 57.5081 0.5166 57.5081 1.18061V9.41435C57.5081 10.0784 57.9063 10.2112 58.1717 10.2112C58.4372 10.2112 58.8353 10.0784 58.8353 9.41435V5.16468L63.4806 9.94557C63.6133 10.2112 63.8787 10.2112 64.0114 10.2112C64.4096 10.2112 64.6751 9.81277 64.6751 9.54716ZM71.3111 5.69588C71.842 5.69588 71.9747 5.29748 71.9747 5.16468C71.9747 5.03188 71.842 4.63348 71.3111 4.63348H67.3295V1.84462H71.5766C72.1075 1.84462 72.2402 1.44622 72.2402 1.31342C72.2402 1.18062 72.1075 0.7822 71.5766 0.7822H66.7986C66.2677 0.7822 66.0023 1.04781 66.0023 1.57902V9.54716C66.0023 10.0784 66.2677 10.344 66.7986 10.344H71.7093C72.2402 10.344 72.3729 9.94557 72.3729 9.81276C72.3729 9.67996 72.2402 9.28156 71.7093 9.28156H67.3295V6.09429H71.3111V5.69588ZM76.62 5.82869H75.16V9.41435C75.16 10.0784 74.7619 10.2112 74.4964 10.2112C74.231 10.2112 73.8328 10.0784 73.8328 9.41435V1.31342C73.8328 0.782212 74.0983 0.5166 74.6292 0.5166H76.8854C78.7435 0.5166 80.2035 1.18061 80.2035 3.17265C80.2035 4.50067 79.2744 5.43028 77.9472 5.69588L80.2035 9.01594C80.3362 9.14874 80.3362 9.41435 80.3362 9.41435C80.3362 9.81276 80.0708 10.0784 79.6726 10.0784C79.5399 10.0784 79.2744 9.94556 79.1417 9.67995L76.62 5.82869ZM75.16 4.63348H76.7527C77.9472 4.63348 79.009 4.23506 79.009 3.03984C79.009 1.84461 78.0799 1.57902 76.8854 1.57902H75.2928V4.63348H75.16ZM13.4446 0.5166C13.0464 0.383797 12.6483 0.516604 12.5155 0.915011L9.8611 8.08633L8.00301 0.915011C7.87029 0.649406 7.60485 0.383789 7.33941 0.383789C7.07396 0.383789 6.80852 0.516604 6.6758 0.915011L4.81767 8.08633L2.16324 0.915011C2.03051 0.516604 1.63237 0.383797 1.23421 0.5166C0.836046 0.649402 0.7033 1.0478 0.836022 1.44621L3.88864 9.54716C4.02136 9.81277 4.15407 9.94556 4.41952 10.0784C4.9504 10.2112 5.48128 10.0784 5.614 9.54716V9.41435L7.20668 3.17265L8.79931 9.41435V9.54716C8.93203 10.0784 9.59567 10.344 9.99383 10.0784C10.2593 9.94556 10.392 9.81277 10.5247 9.54716L13.5773 1.44621C13.9755 1.0478 13.8427 0.649402 13.4446 0.5166Z" fill="white"/>
</svg>
